<?xml version="1.0" encoding="UTF-8"?>
<svg xmlns="http://www.w3.org/2000/svg" viewBox="0 0 700 394" width="700" height="394" role="img" aria-labelledby="t01 d01">
  <title id="t01">BIRD intraday, April 15, 2026: open $2.49, peak $24.31 at 9:47 AM, close $14.50</title>
  <desc id="d01">Candlestick chart of NewBird AI (BIRD) from 9:30 AM to 4:00 PM Eastern on April 15, 2026. Stock opened at $2.49, spiked 582% to an intraday peak of $24.31 at 9:47 AM on volume 35 times its float, then faded through the afternoon to close at $14.50. Volume strip shown below the price chart.</desc>
  <style>
    .title{font-family:'Source Serif 4',Georgia,serif;font-style:italic;font-size:18px;fill:#1A1A1A}
    .subtitle{font-family:Inter,system-ui,sans-serif;font-size:11px;fill:#5C5C5C;letter-spacing:0.06em}
    .axis{font-family:'JetBrains Mono',ui-monospace,monospace;font-size:10px;fill:#5C5C5C}
    .ticklabel{font-family:'JetBrains Mono',ui-monospace,monospace;font-size:10px;fill:#5C5C5C}
    .gridline{stroke:#9E9E9E;stroke-opacity:0.25;stroke-width:1}
    .candle-up{fill:#3A8E5C}
    .candle-down{fill:#B23A48}
    .wick{stroke:#1A1A1A;stroke-width:1}
    .volbar{fill:#9E9E9E;opacity:0.75}
    .peak-label{font-family:'Source Serif 4',Georgia,serif;font-style:italic;font-size:18px;fill:#B23A48;font-weight:600}
    .anno-line{stroke:#B23A48;stroke-width:1}
    .anno-text{font-family:Inter,system-ui,sans-serif;font-size:11px;fill:#5C5C5C}
    .close-label{font-family:'Source Serif 4',Georgia,serif;font-style:italic;font-size:16px;fill:#1A1A1A}
  </style>
  <rect width="700" height="394" fill="#FBFAF7"/>

  <text class="title" x="40" y="34">BIRD intraday, April 15, 2026</text>
  <text class="subtitle" x="40" y="52">5-MIN BARS · PEAK $24.31 (+582%) AT 9:47 AM · CLOSE $14.50 · VOLUME 35× FLOAT</text>

  <!-- price area -->
  <g transform="translate(50,70)">
    <!-- y grid $0, $5, $10, $15, $20, $25 -->
    <!-- price plot height 200, domain 0..26 -->
    <g>
      <line class="gridline" x1="0" y1="0" x2="600" y2="0"/>
      <text class="ticklabel" x="-6" y="4" text-anchor="end">$25</text>
      <line class="gridline" x1="0" y1="38.5" x2="600" y2="38.5"/>
      <text class="ticklabel" x="-6" y="42" text-anchor="end">$20</text>
      <line class="gridline" x1="0" y1="77" x2="600" y2="77"/>
      <text class="ticklabel" x="-6" y="81" text-anchor="end">$15</text>
      <line class="gridline" x1="0" y1="115" x2="600" y2="115"/>
      <text class="ticklabel" x="-6" y="119" text-anchor="end">$10</text>
      <line class="gridline" x1="0" y1="154" x2="600" y2="154"/>
      <text class="ticklabel" x="-6" y="158" text-anchor="end">$5</text>
      <line class="gridline" x1="0" y1="200" x2="600" y2="200"/>
      <text class="ticklabel" x="-6" y="203" text-anchor="end">$0</text>
    </g>

    <!-- Each of 15 candles; x step = 40, candle width 24.
         y = 200 - (price / 26) * 200 = 200 - price*7.69  -->
    <!-- 1 09:30 o2.49 h3.20 l2.48 c3.15 v12 (up) -->
    <g><line class="wick" x1="20" x2="20" y1="175.8" y2="180.9"/><rect class="candle-up" x="8" y="175.8" width="24" height="5.1"/></g>
    <!-- 2 09:35 o3.15 h5.40 l3.10 c5.10 v35 (up) -->
    <g><line class="wick" x1="60" x2="60" y1="158.5" y2="176.2"/><rect class="candle-up" x="48" y="160.8" width="24" height="15.4"/></g>
    <!-- 3 09:40 o5.10 h9.20 l5.05 c8.80 v58 (up) -->
    <g><line class="wick" x1="100" x2="100" y1="129.2" y2="161.2"/><rect class="candle-up" x="88" y="132.3" width="24" height="28.9"/></g>
    <!-- 4 09:45 o8.80 h15.10 l8.70 c14.40 v72 (up) -->
    <g><line class="wick" x1="140" x2="140" y1="83.8" y2="133.1"/><rect class="candle-up" x="128" y="89.2" width="24" height="43.9"/></g>
    <!-- 5 09:47 o14.40 h24.31 l14.30 c22.80 v88 (up) -->
    <g><line class="wick" x1="180" x2="180" y1="13.0" y2="90.0"/><rect class="candle-up" x="168" y="24.6" width="24" height="64.6"/></g>
    <!-- 6 10:00 o22.80 h23.90 l21.20 c22.10 v42 (down) -->
    <g><line class="wick" x1="220" x2="220" y1="16.2" y2="37.0"/><rect class="candle-down" x="208" y="24.6" width="24" height="5.5"/></g>
    <!-- 7 10:30 o22.10 h23.10 l20.80 c21.60 v30 (down) -->
    <g><line class="wick" x1="260" x2="260" y1="22.3" y2="39.9"/><rect class="candle-down" x="248" y="30.1" width="24" height="3.8"/></g>
    <!-- 8 11:00 o21.60 h22.30 l20.10 c20.40 v22 (down) -->
    <g><line class="wick" x1="300" x2="300" y1="28.5" y2="45.3"/><rect class="candle-down" x="288" y="33.9" width="24" height="9.3"/></g>
    <!-- 9 11:30 o20.40 h20.80 l19.20 c19.60 v18 (down) -->
    <g><line class="wick" x1="340" x2="340" y1="39.9" y2="52.1"/><rect class="candle-down" x="328" y="43.2" width="24" height="6.2"/></g>
    <!-- 10 12:00 o19.60 h19.80 l18.10 c18.30 v15 (down) -->
    <g><line class="wick" x1="380" x2="380" y1="47.7" y2="60.8"/><rect class="candle-down" x="368" y="49.4" width="24" height="10.1"/></g>
    <!-- 11 13:00 o18.30 h18.70 l16.40 c16.80 v14 (down) -->
    <g><line class="wick" x1="420" x2="420" y1="56.2" y2="73.9"/><rect class="candle-down" x="408" y="59.5" width="24" height="11.5"/></g>
    <!-- 12 14:00 o16.80 h17.20 l15.40 c15.70 v12 (down) -->
    <g><line class="wick" x1="460" x2="460" y1="67.7" y2="81.6"/><rect class="candle-down" x="448" y="71.0" width="24" height="8.5"/></g>
    <!-- 13 15:00 o15.70 h15.90 l14.20 c14.80 v11 (down) -->
    <g><line class="wick" x1="500" x2="500" y1="77.7" y2="90.8"/><rect class="candle-down" x="488" y="79.5" width="24" height="6.9"/></g>
    <!-- 14 15:30 o14.80 h15.00 l14.30 c14.60 v10 (down) -->
    <g><line class="wick" x1="540" x2="540" y1="84.6" y2="90.0"/><rect class="candle-down" x="528" y="86.5" width="24" height="1.6"/></g>
    <!-- 15 16:00 o14.60 h14.70 l14.40 c14.50 v8 (down) -->
    <g><line class="wick" x1="580" x2="580" y1="86.9" y2="89.2"/><rect class="candle-down" x="568" y="88.1" width="24" height="0.8"/></g>

    <!-- peak annotation -->
    <line class="anno-line" x1="192" y1="13" x2="240" y2="13"/>
    <text class="peak-label" x="246" y="16">$24.31 · +582%</text>
    <text class="anno-text" x="246" y="32">9:47 AM · 288M shares · 35× float</text>

    <!-- close annotation -->
    <line class="anno-line" x1="592" y1="89" x2="570" y2="130" stroke="#1A1A1A"/>
    <text class="close-label" x="560" y="146" text-anchor="end">close $14.50</text>

    <!-- x axis -->
    <text class="axis" x="20" y="220" text-anchor="middle">9:30</text>
    <text class="axis" x="180" y="220" text-anchor="middle">9:47</text>
    <text class="axis" x="340" y="220" text-anchor="middle">11:30</text>
    <text class="axis" x="460" y="220" text-anchor="middle">14:00</text>
    <text class="axis" x="580" y="220" text-anchor="middle">16:00</text>
  </g>

  <!-- Volume strip y=310..370 -->
  <g transform="translate(50,300)">
    <text class="axis" x="-6" y="60" text-anchor="end">Vol</text>
    <text class="axis" x="-6" y="10" text-anchor="end">288M</text>
    <!-- bars scaled so max=88 -> 60 -->
    <rect class="volbar" x="8"   y="52"   width="24" height="8"/>
    <rect class="volbar" x="48"  y="36"   width="24" height="24"/>
    <rect class="volbar" x="88"  y="20.5" width="24" height="39.5"/>
    <rect class="volbar" x="128" y="11"   width="24" height="49"/>
    <rect class="volbar" x="168" y="0"    width="24" height="60"/>
    <rect class="volbar" x="208" y="31.4" width="24" height="28.6"/>
    <rect class="volbar" x="248" y="39.5" width="24" height="20.5"/>
    <rect class="volbar" x="288" y="45"   width="24" height="15"/>
    <rect class="volbar" x="328" y="47.7" width="24" height="12.3"/>
    <rect class="volbar" x="368" y="49.8" width="24" height="10.2"/>
    <rect class="volbar" x="408" y="50.5" width="24" height="9.5"/>
    <rect class="volbar" x="448" y="51.8" width="24" height="8.2"/>
    <rect class="volbar" x="488" y="52.5" width="24" height="7.5"/>
    <rect class="volbar" x="528" y="53.2" width="24" height="6.8"/>
    <rect class="volbar" x="568" y="54.5" width="24" height="5.5"/>
  </g>

  <text x="40" y="388" class="subtitle">Source: Bloomberg, Yahoo Finance, Trendspider. Prior close $2.49. Short interest 18.3% of float.</text>
</svg>
