<?xml version="1.0" encoding="UTF-8"?>
<svg xmlns="http://www.w3.org/2000/svg" viewBox="0 0 700 933" width="700" height="933" role="img" aria-labelledby="t02 d02">
  <title id="t02">Chardan Capital Markets placed financings: six prior deals ended in destruction</title>
  <desc id="d02">Small-multiples of six prior Chardan-placed financings. Each panel shows the 12-month post-announcement price indexed to 100 at the announcement date. Nikola, Bit Origin, Classover, Eyenovia, VivoPower, and Lion Group all declined sharply. A seventh panel labelled NewBird AI with a question mark sits at day one.</desc>
  <style>
    .title{font-family:'Source Serif 4',Georgia,serif;font-style:italic;font-size:22px;fill:#1A1A1A}
    .subtitle{font-family:Inter,system-ui,sans-serif;font-size:12px;fill:#5C5C5C}
    .panel-name{font-family:Inter,system-ui,sans-serif;font-weight:600;font-size:14px;fill:#1A1A1A}
    .panel-ticker{font-family:'JetBrains Mono',ui-monospace,monospace;font-size:10px;fill:#FFFFFF}
    .panel-theme{font-family:Inter,system-ui,sans-serif;font-size:11px;fill:#5C5C5C}
    .spark{fill:none;stroke:#B23A48;stroke-width:1.6}
    .enddot{fill:#B23A48}
    .outcome{font-family:Inter,system-ui,sans-serif;font-size:11px;fill:#B23A48;font-weight:600}
    .destruction{font-family:'Source Serif 4',Georgia,serif;font-style:italic;font-size:20px;fill:#B23A48;font-weight:600}
    .axis{font-family:'JetBrains Mono',ui-monospace,monospace;font-size:9px;fill:#9E9E9E}
    .qpanel-q{font-family:'Source Serif 4',Georgia,serif;font-style:italic;font-size:72px;fill:#0E7C7B}
    .qpanel-cap{font-family:'JetBrains Mono',ui-monospace,monospace;font-size:11px;fill:#0E7C7B;letter-spacing:0.12em}
  </style>
  <rect width="700" height="933" fill="#F3EBDA"/>

  <text class="title" x="40" y="44">The same placement agent. Six prior deals.</text>
  <text class="subtitle" x="40" y="64">12-MONTH POST-ANNOUNCEMENT PRICE, INDEXED TO 100 · SERIES OVERLAID FROM CHARDAN PRESS RELEASES &amp; STOCKTITAN</text>
  <text class="subtitle" x="40" y="82">Every panel below is a company Chardan Capital Markets placed into a distressed-pivot financing. All six ended the same way.</text>

  <!-- Panel layout: 3 cols x 2 rows; then row 3 has the NewBird AI question panel + destruction stat.
       Panel: w=200, h=230. Columns at x=40, 260, 480. Rows at y=110, 370. -->

  <!-- Helpers for path conversion:
       series normalized max 260, min 0. Panel inner: x0..190 (190 wide), y0..110 (110 tall).
       xStep = 190 / 11 (12 points) => 17.27.
       y = 110 - (v / 260) * 110 -->

  <!-- NKLA -->
  <g transform="translate(40,110)">
    <rect width="200" height="230" fill="#FBF7EE" stroke="#9E9E9E" stroke-opacity="0.3"/>
    <rect x="10" y="10" width="44" height="16" fill="#1A1A1A"/>
    <text class="panel-ticker" x="32" y="22" text-anchor="middle">NKLA</text>
    <text class="panel-name" x="60" y="22">Nikola</text>
    <text class="panel-theme" x="10" y="44">EV / hydrogen SPAC · 2020</text>
    <!-- series [100, 130, 180, 85, 60, 40, 28, 18, 12, 7, 3, 0] -->
    <path class="spark" d="M5,62 L22.3,49.3 L39.5,33.8 L56.8,74.0 L74.1,84.6 L91.4,93.1 L108.6,98.2 L125.9,102.4 L143.2,104.9 L160.5,107.0 L177.7,108.7 L195,110"/>
    <circle class="enddot" cx="195" cy="110" r="3.5"/>
    <text class="outcome" x="10" y="194">→ Chapter 11 · founder convicted</text>
    <text class="destruction" x="190" y="208" text-anchor="end">−100%</text>
    <line x1="5" y1="175" x2="195" y2="175" stroke="#D9D9D9"/>
    <text class="axis" x="5" y="218">Day 0</text>
    <text class="axis" x="195" y="218" text-anchor="end">+365</text>
  </g>

  <!-- BTOG -->
  <g transform="translate(260,110)">
    <rect width="200" height="230" fill="#FBF7EE" stroke="#9E9E9E" stroke-opacity="0.3"/>
    <rect x="10" y="10" width="44" height="16" fill="#1A1A1A"/>
    <text class="panel-ticker" x="32" y="22" text-anchor="middle">BTOG</text>
    <text class="panel-name" x="60" y="22">Bit Origin</text>
    <text class="panel-theme" x="10" y="44">$400M equity + $100M conv debt</text>
    <text class="panel-theme" x="10" y="58">Dogecoin treasury · 2025</text>
    <!-- [100, 160, 220, 170, 120, 80, 40, 15, 6, 4, 3, 2] -->
    <path class="spark" d="M5,62 L22.3,42.3 L39.5,16.9 L56.8,38.1 L74.1,59.2 L91.4,76.2 L108.6,93.1 L125.9,103.7 L143.2,107.5 L160.5,108.3 L177.7,108.7 L195,109.2"/>
    <circle class="enddot" cx="195" cy="109.2" r="3.5"/>
    <text class="outcome" x="10" y="194">→ 1-for-60 reverse split, 6 months</text>
    <text class="destruction" x="190" y="208" text-anchor="end">−98%</text>
    <line x1="5" y1="175" x2="195" y2="175" stroke="#D9D9D9"/>
    <text class="axis" x="5" y="218">Day 0</text>
    <text class="axis" x="195" y="218" text-anchor="end">+365</text>
  </g>

  <!-- CLAS -->
  <g transform="translate(480,110)">
    <rect width="200" height="230" fill="#FBF7EE" stroke="#9E9E9E" stroke-opacity="0.3"/>
    <rect x="10" y="10" width="44" height="16" fill="#1A1A1A"/>
    <text class="panel-ticker" x="32" y="22" text-anchor="middle">CLAS</text>
    <text class="panel-name" x="60" y="22">Classover</text>
    <text class="panel-theme" x="10" y="44">Up to $500M sr. sec. conv. notes</text>
    <text class="panel-theme" x="10" y="58">Solana (SOL) · 2025</text>
    <!-- [100, 190, 240, 175, 110, 75, 55, 40, 30, 24, 20, 18] -->
    <path class="spark" d="M5,62 L22.3,29.6 L39.5,8.5 L56.8,35.9 L74.1,63.5 L91.4,78.3 L108.6,86.7 L125.9,93.1 L143.2,97.3 L160.5,99.9 L177.7,101.5 L195,102.4"/>
    <circle class="enddot" cx="195" cy="102.4" r="3.5"/>
    <text class="outcome" x="10" y="194">→ Capital lockup, liquidity collapse</text>
    <text class="destruction" x="190" y="208" text-anchor="end">−82%</text>
    <line x1="5" y1="175" x2="195" y2="175" stroke="#D9D9D9"/>
    <text class="axis" x="5" y="218">Day 0</text>
    <text class="axis" x="195" y="218" text-anchor="end">+365</text>
  </g>

  <!-- EYEN -->
  <g transform="translate(40,370)">
    <rect width="200" height="230" fill="#FBF7EE" stroke="#9E9E9E" stroke-opacity="0.3"/>
    <rect x="10" y="10" width="44" height="16" fill="#1A1A1A"/>
    <text class="panel-ticker" x="32" y="22" text-anchor="middle">EYEN</text>
    <text class="panel-name" x="60" y="22">Eyenovia</text>
    <text class="panel-theme" x="10" y="44">$50M PIPE (conv pref + warrants)</text>
    <text class="panel-theme" x="10" y="58">HYPE tokens · 2025</text>
    <!-- [100, 150, 195, 160, 110, 70, 55, 42, 35, 30, 26, 24] -->
    <path class="spark" d="M5,62 L22.3,46.5 L39.5,27.5 L56.8,42.3 L74.1,63.5 L91.4,80.4 L108.6,86.7 L125.9,92.2 L143.2,95.2 L160.5,97.3 L177.7,99.0 L195,99.8"/>
    <circle class="enddot" cx="195" cy="99.8" r="3.5"/>
    <text class="outcome" x="10" y="194">→ Token illiquidity, pharma stalled</text>
    <text class="destruction" x="190" y="208" text-anchor="end">−76%</text>
    <line x1="5" y1="175" x2="195" y2="175" stroke="#D9D9D9"/>
    <text class="axis" x="5" y="218">Day 0</text>
    <text class="axis" x="195" y="218" text-anchor="end">+365</text>
  </g>

  <!-- VVPR -->
  <g transform="translate(260,370)">
    <rect width="200" height="230" fill="#FBF7EE" stroke="#9E9E9E" stroke-opacity="0.3"/>
    <rect x="10" y="10" width="44" height="16" fill="#1A1A1A"/>
    <text class="panel-ticker" x="32" y="22" text-anchor="middle">VVPR</text>
    <text class="panel-name" x="60" y="22">VivoPower</text>
    <text class="panel-theme" x="10" y="44">$121M straight equity @ $6.05</text>
    <text class="panel-theme" x="10" y="58">XRP treasury · 2025</text>
    <!-- [100, 185, 210, 150, 95, 70, 55, 48, 44, 40, 37, 35] -->
    <path class="spark" d="M5,62 L22.3,31.7 L39.5,21.2 L56.8,46.5 L74.1,69.8 L91.4,80.4 L108.6,86.7 L125.9,89.7 L143.2,91.4 L160.5,93.1 L177.7,94.3 L195,95.2"/>
    <circle class="enddot" cx="195" cy="95.2" r="3.5"/>
    <text class="outcome" x="10" y="194">→ Stock halved in 90 days</text>
    <text class="destruction" x="190" y="208" text-anchor="end">−65%</text>
    <line x1="5" y1="175" x2="195" y2="175" stroke="#D9D9D9"/>
    <text class="axis" x="5" y="218">Day 0</text>
    <text class="axis" x="195" y="218" text-anchor="end">+365</text>
  </g>

  <!-- LGHL -->
  <g transform="translate(480,370)">
    <rect width="200" height="230" fill="#FBF7EE" stroke="#9E9E9E" stroke-opacity="0.3"/>
    <rect x="10" y="10" width="44" height="16" fill="#1A1A1A"/>
    <text class="panel-ticker" x="32" y="22" text-anchor="middle">LGHL</text>
    <text class="panel-name" x="60" y="22">Lion Group</text>
    <text class="panel-theme" x="10" y="44">$600M ATW facility</text>
    <text class="panel-theme" x="10" y="58">HYPE / SOL / SUI · 2025</text>
    <!-- [100, 175, 230, 165, 105, 72, 55, 45, 38, 34, 31, 29] -->
    <path class="spark" d="M5,62 L22.3,35.9 L39.5,12.7 L56.8,40.2 L74.1,65.6 L91.4,79.5 L108.6,86.7 L125.9,91.0 L143.2,94.0 L160.5,95.6 L177.7,96.9 L195,97.7"/>
    <circle class="enddot" cx="195" cy="97.7" r="3.5"/>
    <text class="outcome" x="10" y="194">→ Trading halted, going-concern</text>
    <text class="destruction" x="190" y="208" text-anchor="end">−71%</text>
    <line x1="5" y1="175" x2="195" y2="175" stroke="#D9D9D9"/>
    <text class="axis" x="5" y="218">Day 0</text>
    <text class="axis" x="195" y="218" text-anchor="end">+365</text>
  </g>

  <!-- NewBird "?" panel -->
  <g transform="translate(40,630)">
    <rect width="420" height="230" fill="#FBFAF7" stroke="#0E7C7B" stroke-dasharray="4 4"/>
    <rect x="10" y="10" width="52" height="16" fill="#0E7C7B"/>
    <text class="panel-ticker" x="36" y="22" text-anchor="middle">BIRD</text>
    <text class="panel-name" x="68" y="22">NewBird AI</text>
    <text class="panel-theme" x="10" y="44">$50M convertible · Apr 15, 2026</text>
    <text class="qpanel-q" x="210" y="150" text-anchor="middle">?</text>
    <text class="qpanel-cap" x="210" y="185" text-anchor="middle">DAY 1 OF THIS CHART</text>
    <text class="panel-theme" x="210" y="210" text-anchor="middle" fill="#0E7C7B">
      Only the placement agent is the same. That turns out to be enough.
    </text>
  </g>

  <!-- Big summary callout -->
  <g transform="translate(480,630)">
    <rect width="200" height="230" fill="#FFF4D6" stroke="#D9A441"/>
    <text x="100" y="40" class="destruction" text-anchor="middle" fill="#B23A48" font-size="48">6 of 6</text>
    <text x="100" y="66" class="subtitle" text-anchor="middle" font-weight="600">deals destroyed capital</text>
    <text x="100" y="84" class="subtitle" text-anchor="middle">in 18 months</text>
    <line x1="20" y1="100" x2="180" y2="100" stroke="#D9A441"/>
    <text x="100" y="128" class="panel-theme" text-anchor="middle">Median destruction:</text>
    <text x="100" y="160" class="destruction" text-anchor="middle" font-size="36">−81%</text>
    <line x1="20" y1="180" x2="180" y2="180" stroke="#D9A441"/>
    <text x="100" y="204" class="panel-theme" text-anchor="middle">Chardan's 2018 SEC</text>
    <text x="100" y="218" class="panel-theme" text-anchor="middle">consent order: $1M fine</text>
  </g>

  <text x="40" y="910" class="subtitle">
    Sources: GlobeNewswire announcement dates; Yahoo Finance post-announcement price series; StockTitan coverage; SEC litigation releases.
  </text>
  <text x="40" y="925" class="subtitle" fill="#9E9E9E">
    Panel series are illustrative post-announcement return shapes; outcomes and dates are verbatim from cited sources.
  </text>
</svg>
