<?xml version="1.0" encoding="UTF-8"?>
<svg xmlns="http://www.w3.org/2000/svg" viewBox="0 0 700 394" width="700" height="394" role="img" aria-labelledby="t04 d04">
  <title id="t04">Dilution curve: how far existing holders are diluted at each stock-price scenario</title>
  <desc id="d04">Dual-line chart showing new shares issued (in millions) and percent dilution of existing holders as a function of BIRD stock price at conversion. At $16.99 (today), 3.68 million new shares and 45% dilution. At $5.00, 12.5 million new shares and 153% dilution. At $1.50, 41.7 million new shares and 510% dilution. Assumes 20% conversion discount, $50 million facility, 8.17 million existing shares.</desc>
  <style>
    .title{font-family:'Source Serif 4',Georgia,serif;font-style:italic;font-size:20px;fill:#1A1A1A}
    .subtitle{font-family:Inter,system-ui,sans-serif;font-size:11px;fill:#5C5C5C}
    .axis-tick{font-family:'JetBrains Mono',ui-monospace,monospace;font-size:11px;fill:#5C5C5C}
    .axis-title{font-family:Inter,system-ui,sans-serif;font-size:11px;fill:#5C5C5C;letter-spacing:0.12em}
    .gridline{stroke:#9E9E9E;stroke-opacity:0.18}
    .line-shares{fill:none;stroke:#B23A48;stroke-width:2.4}
    .line-dilution{fill:none;stroke:#1A1A1A;stroke-width:1.6;stroke-dasharray:4 4}
    .scenario-label{font-family:Inter,system-ui,sans-serif;font-weight:600;font-size:12px;fill:#1A1A1A}
    .scenario-value{font-family:'Source Serif 4',Georgia,serif;font-style:italic;font-weight:600;font-size:18px;fill:#B23A48}
    .scenario-sub{font-family:Inter,system-ui,sans-serif;font-size:10px;fill:#5C5C5C}
    .scenario-dot{fill:#B23A48}
    .axis-label-l{fill:#B23A48}
    .axis-label-r{fill:#1A1A1A}
  </style>
  <rect width="700" height="394" fill="#FBFAF7"/>

  <text class="title" x="40" y="34">A $50M facility turns into 42 million shares if BIRD retraces to $1.50</text>
  <text class="subtitle" x="40" y="52">NEW SHARES ISSUED AT EACH PRICE SCENARIO · 20% CONVERSION DISCOUNT · 8.17M EXISTING SHARES</text>

  <!-- Plot area: x=60..630 (570 wide), y=90..320 (230 tall)
       X domain: price $1.50 .. $17.00 (range 15.5) — extended right-edge so the $16.99 "Today" dot lands just inside the axis.
       X = 60 + ((p - 1.5) / 15.5) * 570
       Left Y: shares 0..50M; Right Y: dilution 0..600%
       yS(s) = 320 - (s / 50) * 230  => s in millions
       yD(d) = 320 - (d / 600) * 230
  -->

  <!-- grid -->
  <g>
    <line class="gridline" x1="60" y1="90"  x2="630" y2="90"/>
    <line class="gridline" x1="60" y1="146" x2="630" y2="146"/>
    <line class="gridline" x1="60" y1="204" x2="630" y2="204"/>
    <line class="gridline" x1="60" y1="262" x2="630" y2="262"/>
    <line class="gridline" x1="60" y1="320" x2="630" y2="320"/>
  </g>

  <!-- Left Y axis: shares (0..50M) -->
  <g>
    <text class="axis-tick axis-label-l" x="54" y="94"  text-anchor="end">50M</text>
    <text class="axis-tick axis-label-l" x="54" y="150" text-anchor="end">37.5M</text>
    <text class="axis-tick axis-label-l" x="54" y="208" text-anchor="end">25M</text>
    <text class="axis-tick axis-label-l" x="54" y="266" text-anchor="end">12.5M</text>
    <text class="axis-tick axis-label-l" x="54" y="323" text-anchor="end">0</text>
    <text class="axis-title axis-label-l" x="40" y="76" transform="rotate(-90 40 200)">SHARES ISSUED</text>
  </g>

  <!-- Right Y axis: dilution (0..600%) -->
  <g>
    <text class="axis-tick axis-label-r" x="636" y="94"  text-anchor="start">600%</text>
    <text class="axis-tick axis-label-r" x="636" y="150" text-anchor="start">450%</text>
    <text class="axis-tick axis-label-r" x="636" y="208" text-anchor="start">300%</text>
    <text class="axis-tick axis-label-r" x="636" y="266" text-anchor="start">150%</text>
    <text class="axis-tick axis-label-r" x="636" y="323" text-anchor="start">0%</text>
  </g>

  <!-- X axis -->
  <line x1="60" y1="320" x2="630" y2="320" stroke="#1A1A1A"/>
  <g>
    <text class="axis-tick" x="60"  y="340" text-anchor="middle">$1.50</text>
    <text class="axis-tick" x="170.3" y="340" text-anchor="middle">$4.50</text>
    <text class="axis-tick" x="280.6" y="340" text-anchor="middle">$7.50</text>
    <text class="axis-tick" x="391.0" y="340" text-anchor="middle">$10.50</text>
    <text class="axis-tick" x="501.3" y="340" text-anchor="middle">$13.50</text>
    <text class="axis-tick" x="630" y="340" text-anchor="middle">$17.00</text>
    <text class="axis-title" x="345" y="358" text-anchor="middle">BIRD STOCK PRICE AT CONVERSION →</text>
  </g>

  <!-- Curves. Shares(p) = 50 / (0.8p) = 62.5/p (in millions) -->
  <!-- Dilution(p) = shares/8.17 * 100 -->
  <!-- Sample points (shares):
       p=1.50  => 41.67M, 510%
       p=2.00  => 31.25M, 382%
       p=3.00  => 20.83M, 255%
       p=5.00  => 12.50M, 153%
       p=8.00  =>  7.81M,  96%
       p=11.60 =>  5.39M,  66%
       p=14.50 =>  4.31M,  53%
       p=16.99 =>  3.68M,  45%
  -->

  <!-- Convert to svg coords (x(p) = 60 + ((p-1.5)/15.5)*570; yS(s) = 320 - (s/50)*230; yD(d) = 320 - (d/600)*230) -->
  <!-- p=1.50 x=60      yS(41.67)=128.3  yD(510)=124.5 -->
  <!-- p=2.00 x=78.4    yS(31.25)=176.3  yD(382)=173.6 -->
  <!-- p=3.00 x=115.2   yS(20.83)=224.2  yD(255)=222.3 -->
  <!-- p=5.00 x=188.7   yS(12.50)=262.5  yD(153)=261.4 -->
  <!-- p=8.00 x=299.0   yS(7.81)=284.1   yD(96)=283.2 -->
  <!-- p=11.60 x=431.4  yS(5.39)=295.2   yD(66)=294.7 -->
  <!-- p=14.50 x=537.9  yS(4.31)=300.2   yD(53)=299.7 -->
  <!-- p=16.99 x=629.6  yS(3.68)=303.1   yD(45)=302.8 -->

  <path class="line-shares" d="M60,128.3 C 66,150 70,163 78.4,176.3 C 95,197 105,215 115.2,224.2 C 150,248 170,258 188.7,262.5 C 235,276 275,281 299.0,284.1 C 355,290 400,293 431.4,295.2 C 480,298 515,299 537.9,300.2 C 570,301 605,302 629.6,303.1"/>

  <path class="line-dilution" d="M60,124.5 C 66,148 70,160 78.4,173.6 C 95,195 105,212 115.2,222.3 C 150,246 170,256 188.7,261.4 C 235,275 275,280 299.0,283.2 C 355,289 400,292 431.4,294.7 C 480,297 515,298 537.9,299.7 C 570,301 605,301 629.6,302.8"/>

  <!-- Scenario dots + labels -->
  <!-- $16.99 (current) -->
  <circle class="scenario-dot" cx="629.6" cy="303.1" r="5"/>
  <text class="scenario-label" x="624" y="292" text-anchor="end">Today</text>
  <text class="scenario-value" x="624" y="276" text-anchor="end">3.68M · 45%</text>
  <text class="scenario-sub" x="624" y="260" text-anchor="end">at $16.99</text>

  <!-- $5 -->
  <circle class="scenario-dot" cx="188.7" cy="262.5" r="5"/>
  <text class="scenario-label" x="195" y="254" text-anchor="start">Moderate stress</text>
  <text class="scenario-value" x="195" y="238" text-anchor="start">12.5M · 153%</text>
  <text class="scenario-sub" x="195" y="222" text-anchor="start">at $5.00</text>

  <!-- $1.50 -->
  <circle class="scenario-dot" cx="60" cy="128.3" r="6"/>
  <text class="scenario-label" x="68" y="120" text-anchor="start">Severe stress (Bit Origin level)</text>
  <text class="scenario-value" x="68" y="104" text-anchor="start">41.7M · 510%</text>
  <text class="scenario-sub" x="68" y="88" text-anchor="start">at $1.50 → 1-for-6 reverse split territory</text>

  <!-- Legend -->
  <g transform="translate(60,70)">
    <line x1="0" y1="0" x2="20" y2="0" class="line-shares"/>
    <text x="26" y="4" class="subtitle" fill="#B23A48" font-weight="600">New shares issued (left axis)</text>
    <line x1="200" y1="0" x2="220" y2="0" class="line-dilution"/>
    <text x="226" y="4" class="subtitle" font-weight="600">Dilution % of 8.17M float (right axis)</text>
  </g>

  <text x="40" y="384" class="subtitle">
    New shares = $50M ÷ (P × 0.80). Dilution = new shares ÷ existing shares. Assumes one-shot conversion of the full facility. Excludes interest accrual.
  </text>
</svg>
